<?xml version="1.0" encoding="UTF-8"?>
<svg xmlns="http://www.w3.org/2000/svg" version="1.1" viewBox="0 0 200 200">
  <defs>
    <style>
      .cls-1 {
        fill: #9fddf9;
      }

      .cls-2, .cls-3 {
        fill: #fdb743;
      }

      .cls-4, .cls-5 {
        fill: #fff;
      }

      .cls-6, .cls-7, .cls-3, .cls-8, .cls-9, .cls-10, .cls-11, .cls-12, .cls-5, .cls-13 {
        stroke-miterlimit: 10;
      }

      .cls-6, .cls-7, .cls-3, .cls-8, .cls-9, .cls-10, .cls-11, .cls-5, .cls-13 {
        stroke-width: .25px;
      }

      .cls-6, .cls-8, .cls-12 {
        fill: none;
      }

      .cls-6, .cls-11, .cls-12 {
        stroke: #0677ab;
      }

      .cls-7 {
        fill: #ef8e69;
      }

      .cls-7, .cls-3, .cls-8, .cls-9, .cls-10, .cls-13 {
        stroke: #231f20;
      }

      .cls-7, .cls-10 {
        opacity: .2;
      }

      .cls-9 {
        fill: #ffd28d;
      }

      .cls-10, .cls-11, .cls-13 {
        fill: #231f20;
      }

      .cls-12 {
        stroke-width: .08px;
      }

      .cls-14 {
        fill: #e64325;
      }

      .cls-5 {
        opacity: .4;
        stroke: #fff200;
      }

      .cls-15 {
        fill: #00aeef;
      }
    </style>
  </defs>
  <!-- Generator: Adobe Illustrator 28.6.0, SVG Export Plug-In . SVG Version: 1.2.0 Build 709)  -->
  <g>
    <g id="Layer_1">
      <g>
        <path class="cls-15" d="M79.46,126.93c-.13,9.88-9.09,18-20.03,18.13-10.93.13-19.7-7.77-19.57-17.66.13-9.88,9.09-18,20.03-18.13,10.93-.13,19.7,7.77,19.57,17.66Z"/>
        <path class="cls-6" d="M79.46,126.93c-.13,9.88-9.09,18-20.03,18.13-10.93.13-19.7-7.77-19.57-17.66.13-9.88,9.09-18,20.03-18.13,10.93-.13,19.7,7.77,19.57,17.66Z"/>
        <path class="cls-6" d="M79.46,126.93c-.13,9.88-9.09,18-20.03,18.13-10.93.13-19.7-7.77-19.57-17.66.13-9.88,9.09-18,20.03-18.13,10.93-.13,19.7,7.77,19.57,17.66Z"/>
        <path class="cls-12" d="M79.46,126.93c-.13,9.88-9.09,18-20.03,18.13-10.93.13-19.7-7.77-19.57-17.66.13-9.88,9.09-18,20.03-18.13,10.93-.13,19.7,7.77,19.57,17.66Z"/>
        <path class="cls-15" d="M79.46,126.93c-.13,9.88-9.09,18-20.03,18.13-10.93.13-19.7-7.77-19.57-17.66.13-9.88,9.09-18,20.03-18.13,10.93-.13,19.7,7.77,19.57,17.66Z"/>
        <path class="cls-1" d="M79.46,126.93c-.13,9.88-9.09,18-20.03,18.13-10.93.13-19.7-7.77-19.57-17.66.13-9.88,9.09-18,20.03-18.13,10.93-.13,19.7,7.77,19.57,17.66Z"/>
        <path class="cls-6" d="M79.46,126.93c-.13,9.88-9.09,18-20.03,18.13-10.93.13-19.7-7.77-19.57-17.66.13-9.88,9.09-18,20.03-18.13,10.93-.13,19.7,7.77,19.57,17.66Z"/>
        <path class="cls-6" d="M79.46,126.93c-.13,9.88-9.09,18-20.03,18.13-10.93.13-19.7-7.77-19.57-17.66.13-9.88,9.09-18,20.03-18.13,10.93-.13,19.7,7.77,19.57,17.66Z"/>
      </g>
      <path class="cls-13" d="M60.27,118.49"/>
      <path class="cls-13" d="M60.7,118.09"/>
      <path class="cls-9" d="M66.71,131.13l-2.26.43-14.23,1.85c-.66.09-1.19-.52-.99-1.14l4.04-12.31.38-2.2c2.1.7,4.12,1.73,5.98,3.14,3.56,2.76,5.97,6.38,7.09,10.22Z"/>
      <path class="cls-9" d="M59.62,120.91c-1.86-1.41-3.88-2.45-5.98-3.14l-.38,2.2-4.04,12.31c-.2.61.33,1.22.99,1.14l14.23-1.85,2.26-.43c-1.12-3.84-3.52-7.45-7.09-10.22Z"/>
      <g>
        <path class="cls-2" d="M64.49,131.65c-3.33,1.33-3.56.64-7.11,1.1s-3.6.09-7.16.56c-.66.09-.91-.33-.7-.94,1.01-3.08.63-3.2,1.64-6.28s.59-3.24,2.43-5.91c1.78.62,3.58.79,5.16,2.02,1.49,1.16,1.81,3.38,2.82,4.84,1.06,1.53,2.42,2.9,2.93,4.62Z"/>
        <path class="cls-8" d="M64.49,131.65c-3.33,1.33-3.56.64-7.11,1.1s-3.6.09-7.16.56c-.66.09-.91-.33-.7-.94,1.01-3.08.63-3.2,1.64-6.28s.59-3.24,2.43-5.91c1.78.62,3.58.79,5.16,2.02,1.49,1.16,1.81,3.38,2.82,4.84,1.06,1.53,2.42,2.9,2.93,4.62Z"/>
      </g>
      <path class="cls-3" d="M50.94,133.39"/>
      <path class="cls-3" d="M50.95,133.76"/>
      <path class="cls-3" d="M50.94,133.39"/>
      <g>
        <path class="cls-4" d="M55.85,125.08c.38.63,1.29,2.52.21,3.13s-1.75-1.5-2.14-2.13-.72-.23.36-.84c1.08-.61,1.18-.8,1.56-.17Z"/>
        <path class="cls-8" d="M55.85,125.08c.38.63,1.29,2.52.21,3.13s-1.75-1.5-2.14-2.13-.72-.23.36-.84c1.08-.61,1.18-.8,1.56-.17Z"/>
        <path class="cls-8" d="M55.85,125.08c.38.63,1.29,2.52.21,3.13s-1.75-1.5-2.14-2.13-.72-.23.36-.84c1.08-.61,1.18-.8,1.56-.17Z"/>
        <path class="cls-14" d="M55.85,125.08c.38.63,1.29,2.52.21,3.13s-1.75-1.5-2.14-2.13-.72-.23.36-.84c1.08-.61,1.18-.8,1.56-.17Z"/>
      </g>
      <g>
        <path class="cls-4" d="M62.66,130.14c.04,1-.37,2.67-1.4,2.71-1.04.04-2.88-1.54-2.92-2.54s1.67-2.61,2.71-2.65,1.58,1.48,1.62,2.48Z"/>
        <path class="cls-8" d="M62.66,130.14c.04,1-.37,2.67-1.4,2.71-1.04.04-2.88-1.54-2.92-2.54s1.67-2.61,2.71-2.65,1.58,1.48,1.62,2.48Z"/>
        <path class="cls-14" d="M62.66,130.14c.04,1-.37,2.67-1.4,2.71-1.04.04-2.88-1.54-2.92-2.54s1.67-2.61,2.71-2.65,1.58,1.48,1.62,2.48Z"/>
      </g>
      <g>
        <path class="cls-4" d="M52.9,131.7c.02.59-.09.75-.7.77s-.95-.12-.97-.71.27-1.5.88-1.52.77.87.8,1.46Z"/>
        <path class="cls-8" d="M52.9,131.7c.02.59-.09.75-.7.77s-.95-.12-.97-.71.27-1.5.88-1.52.77.87.8,1.46Z"/>
        <path class="cls-14" d="M52.9,131.7c.02.59-.09.75-.7.77s-.95-.12-.97-.71.27-1.5.88-1.52.77.87.8,1.46Z"/>
      </g>
      <ellipse class="cls-10" cx="59.71" cy="129.25" rx=".19" ry=".18"/>
      <ellipse class="cls-10" cx="54.82" cy="126.15" rx=".05" ry=".1" transform="translate(-73.41 76.37) rotate(-45.29)"/>
      <ellipse class="cls-10" cx="61.15" cy="129.26" rx=".03" ry=".25" transform="translate(-73.17 80.21) rotate(-44.62)"/>
      <ellipse class="cls-10" cx="52.25" cy="131.65" rx=".13" ry=".12"/>
      <ellipse class="cls-7" cx="60.65" cy="131.45" rx=".3" ry=".29"/>
      <polygon class="cls-5" points="58.59 125.74 57.29 125.84 57.17 124.3 58.46 124.21 58.59 125.74"/>
      <polygon class="cls-5" points="54.48 128.85 55.44 129.82 54.43 130.74 53.48 129.77 54.48 128.85"/>
      <rect class="cls-11" x="79.19" y="122.7" width="25.22" height="1.02" transform="translate(208.25 223.46) rotate(167.41)"/>
    </g>
  </g>
</svg>